# xmcd
#
# Track frame offsets:
#	150
#	13225
#	41960
#	57465
#	72030
#	101758
#	116983
#	126168
#	138508
#	156160
#	171985
#	186450
#	203745
#	220725
#	230810
#	244053
#	262113
#	288910
#	318798
#
# Disc length: 4422 seconds
#
# Revision: 0
# Processed by: cddbd v1.5.2PL0 Copyright (c) Steve Scherf et al.
# Submitted via: audiograbber 1.83.01
#
DISCID=2f114413
DTITLE=Various Artist - Livin' It Up With The Blues
DYEAR=2001
DGENRE=Blues
TTITLE0=Muddy Waters - Hoochie Coochie Man
TTITLE1=Buddy Guy - First Time I Met The Blues
TTITLE2=Bo Diddley - Road Runner
TTITLE3=Billy Boy Arnold - I Wish You Would
TTITLE4=Eddie Clearwater - Came Up The Hard Way
TTITLE5=Jimmy Reed - Down At The Corner Grocery Store
TTITLE6=Big Joe Williams - Sloppy Drunk
TTITLE7=The Aces - Take A Little Walk With Me
TTITLE8=Lacy Gibson - You Better Be Sure
TTITLE9=Sam Chatmon - Stop And Listen
TTITLE10=Troyce Key and J.J. Malone - Flip, Flop, Fly
TTITLE11=Big Twist and The Mellow Fellows - Livin' It Up
TTITLE12=King Biscuit Boy - Necromonica
TTITLE13=Paul Lamp - Whoopin
TTITLE14=Sonny Boy Williamson - Bye Bye Bird
TTITLE15=Muddy Waters - Honey Bee
TTITLE16=Roy Gaines - Houston, Texas
TTITLE17=Luther Allison - You Upset Me Baby
TTITLE18=Troyce Key and J.J. Malone - Annie Maybe
EXTD=
EXTT0=
EXTT1=
EXTT2=
EXTT3=
EXTT4=
EXTT5=
EXTT6=
EXTT7=
EXTT8=
EXTT9=
EXTT10=
EXTT11=
EXTT12=
EXTT13=
EXTT14=
EXTT15=
EXTT16=
EXTT17=
EXTT18=
PLAYORDER=
